<?xml version="1.0" encoding="UTF-8"?>
<svg version="1.1" xmlns:xlink="http://www.w3.org/1999/xlink" width="48px" height="48px" xmlns="http://www.w3.org/2000/svg">
  <g transform="matrix(1 0 0 1 -36 -468 )">
    <path d="M 40.5927740355175 11.4117647058824  C 41.1414574402939 10.8627450980392  41.4157991426822 10.1960784313725  41.4157991426822 9.41176470588235  C 41.4157991426822 8.62745098039215  41.1414574402939 7.96078431372548  40.5927740355175 7.41176470588235  C 40.044090630741 6.86274509803921  39.3778322106552 6.58823529411765  38.5939987752603 6.58823529411765  C 37.8101653398653 6.58823529411765  37.1439069197795 6.86274509803921  36.5952235150031 7.41176470588235  C 36.0465401102266 7.96078431372548  35.7721984078383 8.62745098039215  35.7721984078383 9.41176470588235  C 35.7721984078383 10.1960784313725  36.0465401102266 10.8627450980392  36.5952235150031 11.4117647058824  C 37.1439069197795 11.9607843137255  37.8101653398653 12.2352941176471  38.5939987752603 12.2352941176471  C 39.3778322106552 12.2352941176471  40.044090630741 11.9607843137255  40.5927740355175 11.4117647058824  Z M 47.7060624617269 0.279411764705884  C 47.9020208205756 0.4656862745098  48 0.686274509803919  48 0.941176470588237  C 48 5.82352941176471  47.260257195346 10.0441176470588  45.780771586038 13.6029411764706  C 44.30128597673 17.1617647058824  41.8175137783221 20.6960784313725  38.3294549908144 24.2058823529412  C 36.7421922841396 25.7745098039216  34.8315982853644 27.5  32.5976729944887 29.3823529411765  L 32.0097979179424 40.5294117647059  C 31.9706062461727 40.843137254902  31.8138395590937 41.0980392156863  31.5394978567055 41.2941176470588  L 20.2522963870178 47.8823529411765  C 20.1151255358236 47.9607843137255  19.9583588487446 48  19.7819963257808 48  C 19.5468462951623 48  19.3214941824862 47.9117647058824  19.1059399877526 47.7352941176471  L 17.2247397428047 45.8529411764706  C 16.9699938763013 45.578431372549  16.8916105327618 45.2647058823529  16.9895897121862 44.9117647058824  L 19.4880587875077 36.7941176470588  L 11.2284139620331 28.5294117647059  L 3.11573790569504 31.0294117647059  C 3.05695039804042 31.0490196078431  2.96876913655848 31.0588235294118  2.85119412124923 31.0588235294118  C 2.57685241886099 31.0588235294118  2.35150030618494 30.9705882352941  2.17513778322107 30.7941176470588  L 0.293937538273117 28.9117647058824  C -0.039191671769749 28.5392156862745  -0.0881812614819351 28.156862745098  0.146968769136558 27.7647058823529  L 6.73116962645438 16.4705882352941  C 6.92712798530312 16.1960784313725  7.18187385180649 16.0392156862745  7.49540722596448 16  L 18.6356399265156 15.4117647058824  C 20.5168401714636 13.1764705882353  22.2412737293325 11.2647058823529  23.8089406001225 9.67647058823529  C 27.4929577464789 6.00980392156863  31.0006123698714 3.48039215686274  34.3319044703001 2.08823529411765  C 37.6631965707287 0.696078431372547  41.8860992039192 0  47.0006123698714 0  C 47.2749540722597 0  47.5101041028781 0.0931372549019578  47.7060624617269 0.279411764705884  Z " fill-rule="nonzero" fill="#1890ff" stroke="none" transform="matrix(1 0 0 1 36 468 )"/>
  </g>
</svg>