<?xml version="1.0" encoding="utf-8"?>
<svg version="1.1" xmlns:xlink="http://www.w3.org/1999/xlink" width="11px" height="20px" xmlns="http://www.w3.org/2000/svg">
  <g transform="matrix(1 0 0 1 -20 -20 )">
    <path d="M 11 2.85359801488834  C 11 3.0686517783292  10.9327541827542 3.25475599669148  10.7982625482625 3.41191066997519  L 5.16023166023166 10  L 10.7982625482625 16.5880893300248  C 10.9327541827542 16.7452440033085  11 16.9313482216708  11 17.1464019851117  C 11 17.3614557485525  10.9327541827542 17.5475599669148  10.7982625482625 17.7047146401985  L 9.03571428571428 19.7642679900744  C 8.90122265122265 19.9214226633581  8.74195624195624 20  8.55791505791506 20  C 8.37387387387387 20  8.21460746460747 19.9214226633581  8.08011583011583 19.7642679900744  L 0.201737451737452 10.5583126550868  C 0.0672458172458174 10.4011579818031  0 10.2150537634409  0 10  C 0 9.78494623655914  0.0672458172458174 9.59884201819686  0.201737451737452 9.44168734491315  L 8.08011583011583 0.235732009925558  C 8.21460746460747 0.0785773366418518  8.37387387387387 0  8.55791505791506 0  C 8.74195624195624 0  8.90122265122265 0.0785773366418518  9.03571428571428 0.235732009925558  L 10.7982625482625 2.29528535980149  C 10.9327541827542 2.45244003308519  11 2.63854425144747  11 2.85359801488834  Z " fill-rule="nonzero" fill="#ffffff" stroke="none" transform="matrix(1 0 0 1 20 20 )" />
  </g>
</svg>