<?xml version="1.0" encoding="UTF-8"?>
<svg version="1.1" xmlns:xlink="http://www.w3.org/1999/xlink" width="46px" height="38px" xmlns="http://www.w3.org/2000/svg">
  <g transform="matrix(1 0 0 1 -36 -404 )">
    <path d="M 43.4330357142857 14.6008522727273  C 44.4084821428571 13.8991477272727  45.2641369047619 13.1164772727273  46 12.2528409090909  L 46 33.6818181818182  C 46 34.8693181818182  45.5978422619048 35.8858901515152  44.7935267857143 36.7315340909091  C 43.9892113095238 37.577178030303  43.0223214285714 38  41.8928571428571 38  L 4.10714285714286 38  C 2.97767857142857 38  2.01078869047619 37.577178030303  1.20647321428571 36.7315340909091  C 0.402157738095238 35.8858901515152  0 34.8693181818182  0 33.6818181818182  L 0 12.2528409090909  C 0.752976190476191 13.1344696969697  1.6171875 13.9171401515151  2.59263392857143 14.6008522727273  C 8.78757440476191 19.0269886363636  13.0401785714286 22.1306818181818  15.3504464285714 23.9119318181818  C 16.3258928571429 24.6676136363636  17.1173735119048 25.256865530303  17.7248883928571 25.6796875  C 18.3324032738095 26.102509469697  19.1409970238095 26.5343276515151  20.1506696428571 26.9751420454545  C 21.1603422619048 27.4159564393939  22.1015625 27.6363636363636  22.9743303571429 27.6363636363636  L 23 27.6363636363636  L 23.0256696428571 27.6363636363636  C 23.8984375 27.6363636363636  24.8396577380952 27.4159564393939  25.8493303571429 26.9751420454545  C 26.8590029761905 26.5343276515151  27.6675967261905 26.102509469697  28.2751116071429 25.6796875  C 28.8826264880952 25.256865530303  29.6741071428571 24.6676136363636  30.6495535714286 23.9119318181818  C 33.5587797619048 21.6988636363636  37.8199404761905 18.5951704545455  43.4330357142857 14.6008522727273  Z M 44.7806919642857 1.26846590909091  C 45.5935639880952 2.11410984848485  46 3.13068181818182  46 4.31818181818182  C 46 5.73958333333333  45.5807291666667 7.09801136363636  44.7421875 8.39346590909091  C 43.9036458333333 9.68892045454546  42.8597470238095 10.7954545454545  41.6104910714286 11.7130681818182  C 35.1759672619048 16.4090909090909  31.1715029761905 19.3328598484849  29.5970982142857 20.484375  C 29.4259672619048 20.610321969697  29.0623139880952 20.8847064393939  28.5061383928571 21.3075284090909  C 27.9499627976191 21.7303503787879  27.4879092261905 22.0722064393939  27.1199776785714 22.3330965909091  C 26.7520461309524 22.5939867424242  26.3071056547619 22.8863636363636  25.78515625 23.2102272727273  C 25.2632068452381 23.5340909090909  24.7712053571429 23.7769886363636  24.3091517857143 23.9389204545455  C 23.8470982142857 24.1008522727273  23.4192708333333 24.1818181818182  23.0256696428571 24.1818181818182  L 23 24.1818181818182  L 22.9743303571429 24.1818181818182  C 22.5807291666667 24.1818181818182  22.1529017857143 24.1008522727273  21.6908482142857 23.9389204545455  C 21.2287946428571 23.7769886363636  20.7367931547619 23.5340909090909  20.21484375 23.2102272727273  C 19.6928943452381 22.8863636363636  19.2479538690476 22.5939867424242  18.8800223214286 22.3330965909091  C 18.5120907738095 22.0722064393939  18.050037202381 21.7303503787879  17.4938616071429 21.3075284090909  C 16.9376860119048 20.8847064393939  16.5740327380952 20.610321969697  16.4029017857143 20.484375  C 14.8456101190476 19.3328598484849  12.6037946428571 17.6910511363636  9.67745535714286 15.5589488636364  C 6.75111607142857 13.4268465909091  4.99702380952381 12.1448863636364  4.41517857142857 11.7130681818182  C 3.35416666666667 10.9573863636364  2.3530505952381 9.91832386363636  1.41183035714286 8.59588068181818  C 0.470610119047619 7.2734375  0 6.04545454545454  0 4.91193181818182  C 0 3.50852272727273  0.355096726190476 2.33901515151515  1.06529017857143 1.40340909090909  C 1.77548363095238 0.467803030303027  2.78943452380952 0  4.10714285714286 0  L 41.8928571428571 0  C 43.0052083333333 0  43.9678199404762 0.422821969696965  44.7806919642857 1.26846590909091  Z " fill-rule="nonzero" fill="#1890ff" stroke="none" transform="matrix(1 0 0 1 36 404 )"/>
  </g>
</svg>