<?xml version="1.0" encoding="utf-8"?>
<svg version="1.1" xmlns:xlink="http://www.w3.org/1999/xlink" width="12px" height="20px" xmlns="http://www.w3.org/2000/svg">
  <g transform="matrix(1 0 0 1 -352 -412 )">
    <path d="M 12 10  C 12 10.21505376344086  11.926640926640927 10.401157981803141  11.77992277992278 10.558312655086848  L 3.185328185328186 19.764267990074444  C 3.038610038610039 19.921422663358147  2.8648648648648654 20  2.664092664092664 20  C 2.4633204633204637 20  2.28957528957529 19.921422663358147  2.142857142857143 19.764267990074444  L 0.22007722007722008 17.70471464019851  C 0.07335907335907346 17.547559966914804  0 17.361455748552522  0 17.146401985111662  C 0 16.931348221670802  0.07335907335907346 16.74524400330852  0.22007722007722008 16.588089330024815  L 6.370656370656372 10  L 0.22007722007722008 3.4119106699751867  C 0.07335907335907346 3.2547559966914785  0 3.0686517783291967  0 2.8535980148883366  C 0 2.6385442514474744  0.07335907335907346 2.4524400330851925  0.22007722007722008 2.295285359801489  L 2.142857142857143 0.23573200992555776  C 2.28957528957529 0.07857733664185185  2.4633204633204637 0  2.664092664092664 0  C 2.8648648648648654 0  3.038610038610039 0.07857733664185185  3.185328185328186 0.23573200992555776  L 11.77992277992278 9.441687344913152  C 11.926640926640927 9.598842018196855  12 9.78494623655914  12 10  Z " fill-rule="nonzero" fill="#0189ff" stroke="none" transform="matrix(1 0 0 1 352 412 )" />
  </g>
</svg>