<?xml version="1.0" encoding="UTF-8"?>
<svg version="1.1" xmlns:xlink="http://www.w3.org/1999/xlink" width="44px" height="40px" xmlns="http://www.w3.org/2000/svg">
  <g transform="matrix(1 0 0 1 -36 -333 )">
    <path d="M 0 8.57142857142857  L 22 0  L 44 8.57142857142857  L 44 11.4285714285714  L 41.0666666666667 11.4285714285714  C 41.0666666666667 11.8154761904762  40.9100694444444 12.1502976190476  40.596875 12.4330357142857  C 40.2836805555556 12.7157738095238  39.9131944444444 12.8571428571429  39.4854166666667 13  L 4.51458333333333 13  C 4.08680555555556 12.8571428571429  3.71631944444444 12.7157738095238  3.403125 12.4330357142857  C 3.08993055555556 12.1502976190476  2.93333333333333 11.8154761904762  2.93333333333333 11.4285714285714  L 0 11.4285714285714  L 0 8.57142857142857  Z M 6 31.4285714285714  L 6 14.2857142857143  L 12 14.2857142857143  L 12 31.4285714285714  L 15 31.4285714285714  L 15 14.2857142857143  L 21 14.2857142857143  L 21 31.4285714285714  L 23 31.4285714285714  L 23 14.2857142857143  L 29 14.2857142857143  L 29 31.4285714285714  L 32 31.4285714285714  L 32 14.2857142857143  L 38 14.2857142857143  L 38 31.4285714285714  L 39.4854166666667 31.4285714285714  C 39.9131944444444 31.4285714285714  40.2836805555556 31.5699404761905  40.596875 31.8526785714286  C 40.9100694444444 32.1354166666667  41.0666666666667 32.4702380952381  41.0666666666667 32.8571428571429  L 41.0666666666667 34  L 2.93333333333333 34  L 2.93333333333333 32.8571428571429  C 2.93333333333333 32.4702380952381  3.08993055555556 32.1354166666667  3.403125 31.8526785714286  C 3.71631944444444 31.5699404761905  4.08680555555556 31.4285714285714  4.51458333333333 31.4285714285714  L 6 31.4285714285714  Z M 1.58125 35  L 42.41875 35  C 42.8465277777778 35.7142857142857  43.2170138888889 35.8556547619048  43.5302083333333 36.1383928571429  C 43.8434027777778 36.421130952381  44 36.7559523809524  44 37.1428571428571  L 44 40  L 0 40  L 0 37.1428571428571  C 0 36.7559523809524  0.156597222222222 36.421130952381  0.469791666666667 36.1383928571429  C 0.782986111111111 35.8556547619048  1.15347222222222 35.7142857142857  1.58125 35  Z " fill-rule="nonzero" fill="#1890ff" stroke="none" transform="matrix(1 0 0 1 36 333 )"/>
  </g>
</svg>