<?xml version="1.0" encoding="utf-8"?>
<svg version="1.1" xmlns:xlink="http://www.w3.org/1999/xlink" width="9px" height="20px" xmlns="http://www.w3.org/2000/svg">
  <g transform="matrix(1 0 0 1 -20 -20 )">
    <path d="M 8.845360824742267 1.2024048096192375  C 8.948453608247425 1.3360053440213737  9 1.4896459585838318  9 1.6633266533066138  C 9 1.8370073480293914  8.948453608247425 1.9906479625918494  8.845360824742267 2.124248496993988  L 2.768041237113402 10  L 8.845360824742267 17.87575150300601  C 8.948453608247425 18.00935203740815  9 18.162992651970605  9 18.336673346693388  C 9 18.510354041416164  8.948453608247425 18.663994655978623  8.845360824742267 18.79759519038076  L 8.072164948453608 19.799599198396795  C 7.969072164948455 19.933199732798933  7.850515463917527 20  7.716494845360824 20  C 7.582474226804125 20  7.463917525773198 19.933199732798933  7.360824742268041 19.799599198396795  L 0.15463917525773196 10.460921843687373  C 0.05154639175257736 10.327321309285235  0 10.173680694722778  0 10  C 0 9.82631930527722  0.05154639175257736 9.672678690714761  0.15463917525773196 9.539078156312627  L 7.360824742268041 0.2004008016032066  C 7.463917525773198 0.06680026720106813  7.582474226804125 0  7.716494845360824 0  C 7.850515463917527 0  7.969072164948455 0.06680026720106813  8.072164948453608 0.2004008016032066  L 8.845360824742267 1.2024048096192375  Z " fill-rule="nonzero" fill="#ffffff" stroke="none" transform="matrix(1 0 0 1 20 20 )" />
  </g>
</svg>